<svg xmlns="http://www.w3.org/2000/svg" viewBox="0 0 48 48" xmlns:xlink="http://www.w3.org/1999/xlink" xml:space="preserve" width="100%" height="100%">
    <path 
        xmlns="http://www.w3.org/2000/svg"
        d="M20 12a16 16 0 0 0 23.91 13.912C42.948 36.06 34.4 44 24 44 12.954 44 4 35.046 4 24 4 13.6 11.94 5.052 22.088 4.09A15.9 15.9 0 0 0 20 12M8 24a16 16 0 0 0 16 16 16 16 0 0 0 13.914-8.09Q36.964 32 36 32c-11.046 0-20-8.954-20-20q0-.962.09-1.914A16 16 0 0 0 8 24M36.328 4.582 38 5v2l-1.672.418a4 4 0 0 0-2.91 2.91L33 12h-2l-.418-1.672a4 4 0 0 0-2.91-2.91L26 7V5l1.672-.418a4 4 0 0 0 2.908-2.91L31 0h2l.418 1.672a4 4 0 0 0 2.91 2.91m10 10L48 15v2l-1.672.418a4 4 0 0 0-2.91 2.91L43 22h-2l-.418-1.672a4 4 0 0 0-2.91-2.91L36 17v-2l1.672-.418a4 4 0 0 0 2.91-2.91L41 10h2l.418 1.672a4 4 0 0 0 2.91 2.91"
        style="fill: rgb(255, 255, 255); fill-opacity: .75;">
    </path>
</svg>
