<svg xmlns="http://www.w3.org/2000/svg" viewBox="0 0 48 48" xmlns:xlink="http://www.w3.org/1999/xlink" xml:space="preserve" width="100%" height="100%"><path xmlns="http://www.w3.org/2000/svg" fill-rule="evenodd" d="M24 31.5a7.5 7.5 0 1 0 0-15 7.5 7.5 0 0 0 0 15m0 4.5a12 12 0 1 0 0-24 12 12 0 0 0 0 24m0-36a2.25 2.25 0 0 1 2.25 2.25v4.5a2.25 2.25 0 0 1-4.5 0v-4.5A2.25 2.25 0 0 1 24 0m0 39a2.25 2.25 0 0 1 2.25 2.25v4.5a2.25 2.25 0 0 1-4.5 0v-4.5A2.25 2.25 0 0 1 24 39M7.029 7.029a2.25 2.25 0 0 1 3.183 0l3.18 3.183a2.25 2.25 0 0 1-3.18 3.18l-3.18-3.18a2.25 2.25 0 0 1 0-3.18zm27.579 27.579a2.25 2.25 0 0 1 3.18 0l3.183 3.18a2.25 2.25 0 0 1-3.18 3.183l-3.183-3.18a2.25 2.25 0 0 1 0-3.183M48 24a2.25 2.25 0 0 1-2.25 2.25h-4.5a2.25 2.25 0 0 1 0-4.5h4.5A2.25 2.25 0 0 1 48 24M9 24a2.25 2.25 0 0 1-2.25 2.25h-4.5a2.25 2.25 0 0 1 0-4.5h4.5A2.25 2.25 0 0 1 9 24M40.971 7.029a2.25 2.25 0 0 1 0 3.183l-3.183 3.18a2.25 2.25 0 1 1-3.18-3.18l3.18-3.18a2.25 2.25 0 0 1 3.18 0zM13.392 34.608a2.25 2.25 0 0 1 0 3.18l-3.18 3.183a2.25 2.25 0 1 1-3.183-3.18l3.18-3.183a2.25 2.25 0 0 1 3.183 0" style="fill: rgb(255, 255, 255); fill-opacity: .75;"></path></svg>
